<?xml version="1.0" ?><svg id="Layer_1" style="enable-background:new 0 0 137.3 139.3;" version="1.1" viewBox="0 0 137.3 139.3" xml:space="preserve" xmlns="http://www.w3.org/2000/svg" xmlns:xlink="http://www.w3.org/1999/xlink"><style type="text/css">
	.st0{fill:#2C8AAA;}
	.st1{opacity:0.19;clip-path:url(#XMLID_79_);fill:#070808;}
	.st2{fill:#33A0DA;}
	.st3{fill:#FFFFFF;}
	.st4{opacity:0.19;fill:#070808;}
	.st5{fill:#22728E;}
	.st6{fill:none;stroke:#FFFFFF;stroke-width:0.5;stroke-miterlimit:10;}
</style><g id="XMLID_2664_"><circle class="st0" cx="68.5" cy="69.6" id="XMLID_68_" r="66.2"/><g id="XMLID_55_"><defs><circle cx="68.6" cy="69.6" id="XMLID_56_" r="66.2"/></defs><clipPath id="XMLID_79_"><use style="overflow:visible;" xlink:href="#XMLID_56_"/></clipPath><polygon class="st1" id="XMLID_67_" points="92.8,38 134.7,74.1 133.9,135.8 89.2,133.9 41.7,100.2   "/></g><g id="XMLID_39_"><path class="st2" d="M92.8,38c0,0,1.6,0.7,1.7,2.2h-1.9H46.3c0,0-6.5,5,0,10.2h46.4h1.2c0,0,1.7-0.4,1.7,2v46.5    c0,0-0.1,1.5-1.9,2.4H44c0,0-2.3-0.4-2.3-3.1v-57c0,0,0.4-3,3.2-3.1H92.8z" id="XMLID_134_"/><path class="st3" d="M92.5,40.2v10.2H46.3c0,0-6.4-4.4,0-10.2H92.5z" id="XMLID_52_"/><path class="st4" d="M41.7,52.8c0,0,1,1.1,3.3,1.1h49.2c0,0,0.8-0.1,1.4-1.4v10.7c0,0-1.1,1.2-4.5,1.2H44.7    c0,0-2.5-0.4-3.1-1.3V52.8z" id="XMLID_50_"/><path class="st4" d="M41.7,84.7c0,0,1,1.1,3.3,1.1h49.2c0,0,0.8-0.1,1.4-1.4v10.7c0,0-1.1,1.2-4.5,1.2H44.7    c0,0-2.5-0.4-3.1-1.3V84.7z" id="XMLID_43_"/><polygon class="st5" id="XMLID_40_" points="76.2,50.4 76.2,79.9 81.4,74.6 86.3,79.5 86.3,50.4   "/></g><path class="st6" d="M-1.3,24.4" id="XMLID_33_"/></g></svg>